<?xml version="1.0" encoding="UTF-8" standalone="no" ?>
<!DOCTYPE svg PUBLIC "-//W3C//DTD SVG 1.1//EN" "http://www.w3.org/Graphics/SVG/1.1/DTD/svg11.dtd">
<svg xmlns="http://www.w3.org/2000/svg" xmlns:xlink="http://www.w3.org/1999/xlink" version="1.1" width="1280" height="1024" viewBox="0 0 1280 1024" xml:space="preserve">
<desc>Created with Fabric.js 4.4.0</desc>
<defs>
</defs>
<g transform="matrix(1 0 0 1 640 512)" id="background-logo"  >
<rect style="stroke: none; stroke-width: 0; stroke-dasharray: none; stroke-linecap: butt; stroke-dashoffset: 0; stroke-linejoin: miter; stroke-miterlimit: 4; fill: rgb(255,255,255); fill-rule: nonzero; opacity: 1;"  paint-order="stroke"  x="-640" y="-512" rx="0" ry="0" width="1280" height="1024" />
</g>
<g transform="matrix(1.9211538461538458 0 0 1.9211538461538458 638.4889843830873 881.5287558737956)" id="text-logo-path"  >
<filter id="SVGID_193066" y="-41.85451139556666%" height="183.70902279113332%" x="-22.753859993757917%" width="145.50771998751583%" >
	<feGaussianBlur in="SourceAlpha" stdDeviation="4"></feGaussianBlur>
	<feOffset dx="7" dy="6" result="oBlur" ></feOffset>
	<feFlood flood-color="rgb(115,115,115)" flood-opacity="1"/>
	<feComposite in2="oBlur" operator="in" />
	<feMerge>
		<feMergeNode></feMergeNode>
		<feMergeNode in="SourceGraphic"></feMergeNode>
	</feMerge>
</filter>
<path style="stroke: none; stroke-width: 0; stroke-dasharray: none; stroke-linecap: butt; stroke-dashoffset: 0; stroke-linejoin: miter; stroke-miterlimit: 4; fill: rgb(27,26,25); fill-rule: nonzero; opacity: 1;filter: url(#SVGID_193066);"  paint-order="stroke"  transform=" translate(-273.215, 31.159999999999997)" d="M 1.09 -58.67 Q 0.87 -59.19 0.87 -59.86 Q 0.87 -60.54 1.63 -61.43 Q 2.39 -62.32 3.91 -62.32 L 3.91 -62.32 L 13.43 -62.32 Q 15.12 -62.32 16.56 -61.14 Q 17.99 -59.97 18.6 -58.19 L 18.6 -58.19 L 30.07 -23.77 L 40.68 -58.19 Q 41.94 -62.32 45.85 -62.32 L 45.85 -62.32 L 53.84 -62.32 Q 57.75 -62.32 59.01 -58.19 L 59.01 -58.19 L 69.62 -23.77 L 81.09 -58.19 Q 81.7 -59.97 83.13 -61.14 Q 84.57 -62.32 86.26 -62.32 L 86.26 -62.32 L 95.78 -62.32 Q 97.26 -62.32 98.02 -61.43 Q 98.78 -60.54 98.78 -59.86 Q 98.78 -59.19 98.6 -58.67 L 98.6 -58.67 L 79.22 -4.43 Q 77.61 0 72.96 0 L 72.96 0 L 66.66 0 Q 61.84 0 60.45 -4.43 L 60.45 -4.43 L 49.85 -37.89 L 39.24 -4.43 Q 37.81 0 33.03 0 L 33.03 0 L 26.68 0 Q 22.08 0 20.47 -4.43 L 20.47 -4.43 L 1.09 -58.67 Z M 106.86 -5.48 Q 100.17 -11.82 100.17 -23.75 Q 100.17 -35.68 106.9 -42.09 Q 113.64 -48.5 125.59 -48.5 Q 137.54 -48.5 144.23 -42.26 Q 150.93 -36.03 150.93 -24.38 L 150.93 -24.38 L 150.93 -21.9 Q 150.93 -20.73 150.17 -19.97 Q 149.41 -19.21 148.23 -19.21 L 148.23 -19.21 L 115.51 -19.21 Q 115.94 -13.86 118.57 -11.43 Q 121.2 -9 126.98 -9 Q 132.76 -9 134.89 -11.6 Q 137.02 -14.21 140.15 -14.25 L 140.15 -14.25 L 146.62 -14.25 Q 147.8 -14.25 148.56 -13.49 Q 149.32 -12.73 149.32 -11.56 L 149.32 -11.56 Q 149.32 0.87 125.72 0.87 L 125.72 0.87 Q 125.63 0.87 125.55 0.87 L 125.55 0.87 Q 113.55 0.87 106.86 -5.48 Z M 115.42 -28.38 L 115.42 -28.38 L 135.63 -28.38 Q 135.19 -38.63 125.57 -38.63 Q 115.94 -38.63 115.42 -28.38 Z M 158.92 -4 L 158.92 -4 L 158.92 -59.62 Q 158.92 -60.8 159.68 -61.56 Q 160.44 -62.32 161.57 -62.32 L 161.57 -62.32 L 171.31 -62.32 Q 172.44 -62.32 173.2 -61.56 Q 173.96 -60.8 173.96 -59.62 L 173.96 -59.62 L 173.96 -46.28 Q 181 -48.5 186.52 -48.5 L 186.52 -48.5 Q 197.21 -48.5 203.51 -42.13 Q 209.81 -35.77 209.81 -23.77 L 209.81 -23.77 Q 209.81 0.87 182.22 0.87 L 182.22 0.87 Q 175.91 0.87 169.16 -0.54 Q 162.4 -1.96 158.92 -4 Z M 173.96 -36.24 L 173.96 -10.6 Q 177.7 -9.6 183.48 -9.6 Q 189.26 -9.6 191.8 -12.95 Q 194.34 -16.3 194.34 -23.77 Q 194.34 -31.25 191.84 -34.61 Q 189.34 -37.98 183.39 -37.98 L 183.39 -37.98 Q 179.56 -37.98 173.96 -36.24 L 173.96 -36.24 Z M 221.85 -5.48 Q 215.16 -11.82 215.16 -23.75 Q 215.16 -35.68 221.89 -42.09 Q 228.63 -48.5 240.58 -48.5 Q 252.53 -48.5 259.22 -42.26 Q 265.91 -36.03 265.91 -24.38 L 265.91 -24.38 L 265.91 -21.9 Q 265.91 -20.73 265.15 -19.97 Q 264.39 -19.21 263.22 -19.21 L 263.22 -19.21 L 230.5 -19.21 Q 230.93 -13.86 233.56 -11.43 Q 236.19 -9 241.97 -9 Q 247.75 -9 249.88 -11.6 Q 252.01 -14.21 255.14 -14.25 L 255.14 -14.25 L 261.61 -14.25 Q 262.78 -14.25 263.55 -13.49 Q 264.31 -12.73 264.31 -11.56 L 264.31 -11.56 Q 264.31 0.87 240.71 0.87 L 240.71 0.87 Q 240.62 0.87 240.53 0.87 L 240.53 0.87 Q 228.54 0.87 221.85 -5.48 Z M 230.41 -28.38 L 230.41 -28.38 L 250.62 -28.38 Q 250.18 -38.63 240.56 -38.63 Q 230.93 -38.63 230.41 -28.38 Z M 273.91 -2.65 L 273.91 -2.65 L 273.91 -59.62 Q 273.91 -60.8 274.67 -61.56 Q 275.43 -62.32 276.56 -62.32 L 276.56 -62.32 L 286.29 -62.32 Q 287.42 -62.32 288.19 -61.56 Q 288.95 -60.8 288.95 -59.62 L 288.95 -59.62 L 288.95 -2.65 Q 288.95 -1.52 288.19 -0.76 Q 287.42 0 286.29 0 L 286.29 0 L 276.56 0 Q 275.43 0 274.67 -0.76 Q 273.91 -1.52 273.91 -2.65 Z M 299.64 -56.71 L 299.64 -56.71 L 299.64 -58.19 Q 299.64 -60.49 300.96 -61.84 Q 302.29 -63.19 304.63 -63.19 L 304.63 -63.19 L 310.02 -63.19 Q 312.33 -63.19 313.67 -61.86 Q 315.02 -60.54 315.02 -58.19 L 315.02 -58.19 L 315.02 -56.71 Q 315.02 -54.41 313.69 -53.06 Q 312.37 -51.71 310.02 -51.71 L 310.02 -51.71 L 304.63 -51.71 Q 302.33 -51.71 300.98 -53.06 Q 299.64 -54.41 299.64 -56.71 Z M 299.81 -2.65 L 299.81 -2.65 L 299.81 -43.89 Q 299.81 -45.06 300.57 -45.8 Q 301.33 -46.54 302.46 -46.54 L 302.46 -46.54 L 312.2 -46.54 Q 313.37 -46.54 314.11 -45.78 Q 314.85 -45.02 314.85 -43.89 L 314.85 -43.89 L 314.85 -2.65 Q 314.85 -1.48 314.09 -0.74 Q 313.33 0 312.2 0 L 312.2 0 L 302.46 0 Q 301.29 0 300.55 -0.74 Q 299.81 -1.48 299.81 -2.65 Z M 323.02 -34.46 L 323.02 -34.46 Q 323.02 -48.5 345.66 -48.5 L 345.66 -48.5 Q 369.47 -48.5 369.47 -36.03 L 369.47 -36.03 Q 369.47 -34.9 368.73 -34.14 Q 367.99 -33.38 366.82 -33.38 L 366.82 -33.38 L 360.35 -33.38 Q 357.22 -33.38 355.09 -36 Q 352.96 -38.63 346.7 -38.63 L 346.7 -38.63 Q 338.1 -38.63 338.1 -34.46 L 338.1 -34.46 Q 338.1 -32.51 341.46 -31.2 Q 344.83 -29.9 349.68 -28.92 Q 354.52 -27.94 359.35 -26.42 Q 364.17 -24.9 367.54 -21.58 Q 370.91 -18.25 370.91 -13.17 L 370.91 -13.17 Q 370.91 0.87 347 0.87 Q 323.1 0.87 323.1 -11.56 L 323.1 -11.56 Q 323.1 -12.73 323.86 -13.49 Q 324.62 -14.25 325.8 -14.25 L 325.8 -14.25 L 332.27 -14.25 Q 335.4 -14.25 337.53 -11.62 Q 339.66 -9 345.92 -9 L 345.92 -9 Q 355.87 -9 355.87 -13.17 L 355.87 -13.17 Q 355.87 -15.12 352.5 -16.43 Q 349.13 -17.73 344.27 -18.75 Q 339.4 -19.77 334.6 -21.27 Q 329.8 -22.77 326.41 -26.12 Q 323.02 -29.46 323.02 -34.46 Z M 378.95 -18.69 L 378.95 -18.69 L 378.95 -59.62 Q 378.95 -60.8 379.71 -61.56 Q 380.47 -62.32 381.6 -62.32 L 381.6 -62.32 L 391.33 -62.32 Q 392.46 -62.32 393.22 -61.56 Q 393.98 -60.8 393.98 -59.62 L 393.98 -59.62 L 393.98 -45.11 L 406.11 -45.11 Q 407.24 -45.11 408 -44.37 Q 408.76 -43.63 408.76 -42.46 L 408.76 -42.46 L 408.76 -37.29 Q 408.76 -36.11 408 -35.37 Q 407.24 -34.64 406.11 -34.64 L 406.11 -34.64 L 393.98 -34.64 L 393.98 -18.69 Q 393.98 -14.25 396.07 -11.84 Q 398.15 -9.43 401.63 -9.43 L 401.63 -9.43 L 407.58 -9.95 L 409.19 -9.95 Q 410.36 -9.95 411.13 -9.21 Q 411.89 -8.47 411.89 -7.3 L 411.89 -7.3 L 411.89 -2.65 Q 411.89 -1.69 411.13 -0.93 Q 410.36 -0.17 409.19 0 L 409.19 0 Q 404.76 0.87 397.63 0.87 L 397.63 0.87 Q 378.95 0.87 378.95 -18.69 Z M 419.01 -56.71 L 419.01 -56.71 L 419.01 -58.19 Q 419.01 -60.49 420.34 -61.84 Q 421.66 -63.19 424.01 -63.19 L 424.01 -63.19 L 429.4 -63.19 Q 431.7 -63.19 433.05 -61.86 Q 434.4 -60.54 434.4 -58.19 L 434.4 -58.19 L 434.4 -56.71 Q 434.4 -54.41 433.07 -53.06 Q 431.75 -51.71 429.4 -51.71 L 429.4 -51.71 L 424.01 -51.71 Q 421.71 -51.71 420.36 -53.06 Q 419.01 -54.41 419.01 -56.71 Z M 419.19 -2.65 L 419.19 -2.65 L 419.19 -43.89 Q 419.19 -45.06 419.95 -45.8 Q 420.71 -46.54 421.84 -46.54 L 421.84 -46.54 L 431.57 -46.54 Q 432.75 -46.54 433.48 -45.78 Q 434.22 -45.02 434.22 -43.89 L 434.22 -43.89 L 434.22 -2.65 Q 434.22 -1.48 433.46 -0.74 Q 432.7 0 431.57 0 L 431.57 0 L 421.84 0 Q 420.66 0 419.93 -0.74 Q 419.19 -1.48 419.19 -2.65 Z M 449.17 -5.39 Q 442.39 -11.65 442.39 -23.79 Q 442.39 -35.94 449.13 -42.22 Q 455.86 -48.5 467.88 -48.5 Q 479.9 -48.5 486.35 -44.67 Q 492.8 -40.85 492.8 -33.38 L 492.8 -33.38 Q 492.8 -32.2 492.04 -31.46 Q 491.28 -30.72 490.11 -30.72 L 490.11 -30.72 L 483.63 -30.72 Q 480.68 -30.72 478.64 -33.9 L 478.64 -33.9 Q 476.07 -37.98 469.57 -37.98 Q 463.08 -37.98 460.49 -34.66 Q 457.91 -31.33 457.91 -23.81 Q 457.91 -16.3 460.58 -12.95 Q 463.25 -9.6 469.88 -9.6 Q 476.51 -9.6 479.07 -13.69 L 479.07 -13.69 Q 481.11 -16.9 484.07 -16.9 L 484.07 -16.9 L 490.54 -16.9 Q 491.72 -16.9 492.48 -16.14 Q 493.24 -15.38 493.24 -14.25 L 493.24 -14.25 Q 493.24 -6.78 486.78 -2.96 Q 480.33 0.87 468.14 0.87 Q 455.95 0.87 449.17 -5.39 Z M 497.67 -34.46 L 497.67 -34.46 Q 497.67 -48.5 520.31 -48.5 L 520.31 -48.5 Q 544.13 -48.5 544.13 -36.03 L 544.13 -36.03 Q 544.13 -34.9 543.39 -34.14 Q 542.65 -33.38 541.47 -33.38 L 541.47 -33.38 L 535 -33.38 Q 531.87 -33.38 529.74 -36 Q 527.61 -38.63 521.35 -38.63 L 521.35 -38.63 Q 512.75 -38.63 512.75 -34.46 L 512.75 -34.46 Q 512.75 -32.51 516.12 -31.2 Q 519.49 -29.9 524.33 -28.92 Q 529.18 -27.94 534 -26.42 Q 538.82 -24.9 542.19 -21.58 Q 545.56 -18.25 545.56 -13.17 L 545.56 -13.17 Q 545.56 0.87 521.66 0.87 Q 497.76 0.87 497.76 -11.56 L 497.76 -11.56 Q 497.76 -12.73 498.52 -13.49 Q 499.28 -14.25 500.45 -14.25 L 500.45 -14.25 L 506.93 -14.25 Q 510.06 -14.25 512.18 -11.62 Q 514.31 -9 520.57 -9 L 520.57 -9 Q 530.52 -9 530.52 -13.17 L 530.52 -13.17 Q 530.52 -15.12 527.16 -16.43 Q 523.79 -17.73 518.92 -18.75 Q 514.05 -19.77 509.25 -21.27 Q 504.45 -22.77 501.06 -26.12 Q 497.67 -29.46 497.67 -34.46 Z" stroke-linecap="round" />
</g>
<g transform="matrix(1.9211538461538458 0 0 1.9211538461538458 632.6606921955002 123.8806719665684)" id="tagline-317b87af-46c2-4e43-9f5b-72038785f483-logo-path"  >
<filter id="SVGID_193067" y="-38.98188093183779%" height="177.9637618636756%" x="-23.504906869617464%" width="147.00981373923491%" >
	<feGaussianBlur in="SourceAlpha" stdDeviation="3.5"></feGaussianBlur>
	<feOffset dx="7" dy="4" result="oBlur" ></feOffset>
	<feFlood flood-color="rgb(165,166,165)" flood-opacity="1"/>
	<feComposite in2="oBlur" operator="in" />
	<feMerge>
		<feMergeNode></feMergeNode>
		<feMergeNode in="SourceGraphic"></feMergeNode>
	</feMerge>
</filter>
<path style="stroke: none; stroke-width: 0; stroke-dasharray: none; stroke-linecap: butt; stroke-dashoffset: 0; stroke-linejoin: miter; stroke-miterlimit: 4; fill: rgb(242,144,32); fill-rule: nonzero; opacity: 1;filter: url(#SVGID_193067);"  paint-order="stroke"  transform=" translate(-204.4, 27.415)" d="M 79.87 -4.91 L 79.87 -4.91 Q 79.72 -3.12 78.35 -1.72 Q 76.99 -0.31 74.65 -0.16 L 74.65 -0.16 Q 68.25 0.23 64.12 0.23 Q 59.98 0.23 54.37 -0.16 L 54.37 -0.16 Q 50.08 -0.55 49.84 -3.9 L 49.84 -3.9 Q 49.76 -5.23 49.69 -7.37 Q 49.61 -9.52 49.49 -11.15 Q 49.37 -12.79 48.63 -13.73 Q 47.89 -14.66 46.02 -14.66 L 46.02 -14.66 L 40.17 -14.66 Q 38.3 -14.66 37.56 -13.73 Q 36.82 -12.79 36.7 -11.15 Q 36.58 -9.52 36.5 -7.37 Q 36.43 -5.23 36.35 -3.9 L 36.35 -3.9 Q 36.11 -0.55 31.82 -0.16 L 31.82 -0.16 Q 26.21 0.23 21.57 0.23 Q 16.93 0.23 10.53 -0.16 L 10.53 -0.16 Q 8.19 -0.31 6.83 -1.72 Q 5.46 -3.12 5.3 -4.91 L 5.3 -4.91 Q 4.68 -11.78 4.68 -26.99 Q 4.68 -42.2 4.99 -46.76 Q 5.3 -51.32 6.4 -53 Q 7.49 -54.68 10.76 -54.68 L 10.76 -54.68 L 29.8 -54.68 Q 32.53 -54.68 34.44 -52.81 Q 36.35 -50.93 36.35 -47.97 L 36.35 -47.97 L 36.35 -31.59 Q 36.35 -28.78 38.77 -28.78 L 38.77 -28.78 L 47.42 -28.78 Q 49.84 -28.78 49.84 -31.59 L 49.84 -31.59 L 49.84 -47.97 Q 49.84 -50.93 51.75 -52.81 Q 53.66 -54.68 56.39 -54.68 L 56.39 -54.68 L 74.41 -54.68 Q 77.69 -54.68 78.78 -53 Q 79.87 -51.32 80.18 -46.76 Q 80.5 -42.2 80.5 -26.99 Q 80.5 -11.78 79.87 -4.91 Z M 158.73 1.56 L 158.73 1.56 Q 149.29 1.56 141.65 -0.9 Q 134 -3.35 129.25 -7.49 Q 124.49 -11.62 121.99 -16.73 Q 119.5 -21.84 119.5 -27.38 Q 119.5 -32.92 122.03 -38.02 Q 124.57 -43.13 129.28 -47.27 Q 134 -51.4 141.65 -53.9 Q 149.29 -56.39 158.42 -56.39 Q 167.54 -56.39 174.56 -54.13 Q 181.58 -51.87 185.87 -47.97 L 185.87 -47.97 Q 194.61 -40.01 194.61 -29.09 L 194.61 -29.09 Q 194.61 -23.56 192.23 -18.25 Q 189.85 -12.95 185.44 -8.62 Q 181.04 -4.29 174.1 -1.52 Q 167.15 1.25 158.73 1.56 Z M 174.17 -28.74 Q 174.17 -32.45 171.52 -35.22 Q 168.87 -37.99 163.45 -37.99 Q 158.03 -37.99 154.83 -35.1 Q 151.63 -32.21 151.63 -28.08 Q 151.63 -23.95 154.99 -21.45 Q 158.34 -18.95 163.06 -18.95 Q 167.78 -18.95 170.98 -22 Q 174.17 -25.04 174.17 -28.74 Z M 271.28 1.56 L 271.28 1.56 Q 261.85 1.56 254.2 -0.9 Q 246.56 -3.35 241.8 -7.49 Q 237.04 -11.62 234.55 -16.73 Q 232.05 -21.84 232.05 -27.38 Q 232.05 -32.92 234.59 -38.02 Q 237.12 -43.13 241.84 -47.27 Q 246.56 -51.4 254.2 -53.9 Q 261.85 -56.39 270.97 -56.39 Q 280.1 -56.39 287.12 -54.13 Q 294.14 -51.87 298.43 -47.97 L 298.43 -47.97 Q 307.16 -40.01 307.16 -29.09 L 307.16 -29.09 Q 307.16 -23.56 304.79 -18.25 Q 302.41 -12.95 298 -8.62 Q 293.59 -4.29 286.65 -1.52 Q 279.71 1.25 271.28 1.56 Z M 286.73 -28.74 Q 286.73 -32.45 284.08 -35.22 Q 281.42 -37.99 276 -37.99 Q 270.58 -37.99 267.38 -35.1 Q 264.19 -32.21 264.19 -28.08 Q 264.19 -23.95 267.54 -21.45 Q 270.89 -18.95 275.61 -18.95 Q 280.33 -18.95 283.53 -22 Q 286.73 -25.04 286.73 -28.74 Z M 390.55 -4.76 L 390.55 -4.76 Q 390.47 -3.04 389.06 -1.6 Q 387.66 -0.16 385.32 0 L 385.32 0 Q 380.87 0.31 374.63 0.31 Q 368.39 0.31 363.17 0 L 363.17 0 Q 360.83 -0.16 359.42 -1.6 Q 358.02 -3.04 357.94 -4.76 L 357.94 -4.76 Q 357.71 -16.61 357.71 -25 Q 357.71 -33.38 357.79 -37.28 L 357.79 -37.28 Q 357.79 -40.25 355.13 -40.25 L 355.13 -40.25 L 348.11 -40.25 Q 346.48 -40.25 345.46 -41.03 Q 344.45 -41.81 344.33 -43.76 Q 344.21 -45.71 344.21 -47.81 Q 344.21 -49.92 344.33 -51.44 Q 344.45 -52.96 345.58 -53.78 Q 346.71 -54.6 348.04 -54.6 L 348.04 -54.6 Q 358.18 -54.76 375.49 -54.76 Q 392.81 -54.76 400.3 -54.6 L 400.3 -54.6 Q 401.62 -54.52 402.75 -53.74 Q 403.88 -52.96 404 -51.44 Q 404.12 -49.92 404.12 -47.89 Q 404.12 -45.86 404.04 -43.99 L 404.04 -43.99 Q 403.81 -40.48 400.22 -40.48 L 400.22 -40.48 L 393.2 -40.48 Q 390.55 -40.48 390.55 -37.75 L 390.55 -37.75 Q 390.78 -27.92 390.78 -19.97 Q 390.78 -12.01 390.55 -4.76 Z" stroke-linecap="round" />
</g>
<g transform="matrix(1.9211538461538458 0 0 1.9211538461538458 1177.1026635823057 862.4738375320625)" id="tagline-27e8784d-5a93-4ec8-96b0-028e98fb6a8a-logo-path"  >
<filter id="SVGID_193068" y="-84.05124099279422%" height="268.10248198558844%" x="-75.4675118858954%" width="250.9350237717908%" >
	<feGaussianBlur in="SourceAlpha" stdDeviation="2.5"></feGaussianBlur>
	<feOffset dx="2" dy="3" result="oBlur" ></feOffset>
	<feFlood flood-color="rgb(84,84,85)" flood-opacity="1"/>
	<feComposite in2="oBlur" operator="in" />
	<feMerge>
		<feMergeNode></feMergeNode>
		<feMergeNode in="SourceGraphic"></feMergeNode>
	</feMerge>
</filter>
<path style="stroke: none; stroke-width: 0; stroke-dasharray: none; stroke-linecap: butt; stroke-dashoffset: 0; stroke-linejoin: miter; stroke-miterlimit: 4; fill: rgb(0,0,0); fill-rule: nonzero; opacity: 1;filter: url(#SVGID_193068);"  paint-order="stroke"  transform=" translate(-6.9, 15.765)" d="M 6.88 -22.01 Q 8.65 -22.01 10.11 -21.2 Q 11.56 -20.4 12.38 -19 Q 13.21 -17.61 13.21 -15.87 L 13.21 -15.87 Q 13.21 -14.07 12.38 -12.62 Q 11.56 -11.16 10.11 -10.34 Q 8.65 -9.52 6.88 -9.52 L 6.88 -9.52 Q 5.12 -9.52 3.67 -10.34 Q 2.23 -11.16 1.41 -12.62 Q 0.59 -14.07 0.59 -15.87 L 0.59 -15.87 Q 0.59 -17.61 1.41 -19 Q 2.23 -20.4 3.67 -21.2 Q 5.12 -22.01 6.88 -22.01 L 6.88 -22.01 Z M 6.88 -11.35 Q 8.8 -11.35 10.07 -12.63 Q 11.35 -13.92 11.35 -15.87 L 11.35 -15.87 Q 11.35 -17.08 10.76 -18.07 Q 10.17 -19.07 9.14 -19.64 Q 8.12 -20.21 6.88 -20.21 L 6.88 -20.21 Q 5.64 -20.21 4.62 -19.64 Q 3.6 -19.07 3.02 -18.07 Q 2.45 -17.08 2.45 -15.87 L 2.45 -15.87 Q 2.45 -13.89 3.7 -12.62 Q 4.96 -11.35 6.88 -11.35 L 6.88 -11.35 Z M 9.08 -16.86 Q 9.08 -15.84 8.34 -15.41 L 8.34 -15.41 Q 8.21 -15.38 8.28 -15.22 L 8.28 -15.22 L 8.93 -13.39 Q 8.96 -13.33 8.96 -13.24 L 8.96 -13.24 Q 8.96 -12.96 8.62 -12.96 L 8.62 -12.96 L 7.84 -12.96 Q 7.53 -12.96 7.44 -13.27 L 7.44 -13.27 L 6.85 -15 Q 6.79 -15.13 6.7 -15.13 L 6.7 -15.13 L 6.63 -15.13 Q 6.48 -15.13 6.48 -14.97 L 6.48 -14.97 L 6.48 -13.33 Q 6.48 -13.18 6.37 -13.07 Q 6.26 -12.96 6.11 -12.96 L 6.11 -12.96 L 5.42 -12.96 Q 5.27 -12.96 5.16 -13.07 Q 5.05 -13.18 5.05 -13.33 L 5.05 -13.33 L 5.05 -18.32 Q 5.05 -18.48 5.16 -18.58 Q 5.27 -18.69 5.42 -18.69 L 5.42 -18.69 L 7.25 -18.69 Q 8.06 -18.69 8.57 -18.17 Q 9.08 -17.64 9.08 -16.86 L 9.08 -16.86 Z M 6.63 -17.45 Q 6.48 -17.45 6.48 -17.3 L 6.48 -17.3 L 6.48 -16.37 Q 6.48 -16.21 6.63 -16.21 L 6.63 -16.21 L 7.04 -16.21 Q 7.32 -16.21 7.49 -16.4 Q 7.66 -16.59 7.66 -16.83 L 7.66 -16.83 Q 7.66 -17.11 7.49 -17.28 Q 7.32 -17.45 7.04 -17.45 L 7.04 -17.45 L 6.63 -17.45 Z" stroke-linecap="round" />
</g>
<g transform="matrix(1.8556921162745754 -0.4972312039565734 0.4972312039565734 1.8556921162745754 640.2422248803829 512.452153110048)" id="logo-logo"  >
<g style=""  paint-order="stroke"   >
		<g transform="matrix(1.3361832982492883 0 0 -1.3361832982492883 0 0)"  >
<path style="stroke: none; stroke-width: 1; stroke-dasharray: none; stroke-linecap: butt; stroke-dashoffset: 0; stroke-linejoin: miter; stroke-miterlimit: 4; fill: rgb(27,26,25); fill-rule: nonzero; opacity: 1;"  paint-order="stroke"  transform=" translate(73.1801608880146, 60.338350507966425)" d="M 0 0 C 0 0 0.582 -49.551 0.785 -61.411 C 1.044 -76.388 -3.073 -90.875 -11.138 -103.42 L -4.608 -128.001 L -29.645 -123.27600000000001 C -42.354 -132.74 -57.427 -137.876 -73.356 -138.149 C -114.945 -138.866 -149.372 -105.60300000000001 -150.087 -64.008 C -150.249 -54.604 -149.945 -4.599999999999994 -149.939 -2.475999999999999 L -149.909 3.008000000000001 L -75.74399999999999 -20.442 L -0.0689999999999884 5.655999999999999 z M 12.847 -106.516 L 13.45 -105.268 C 20.169 -91.425 23.442 -76.537 23.173000000000002 -61.025 C 22.974 -49.373 22.392000000000003 -0.2259999999999991 22.388 0.27199999999999847 L 21.918000000000003 39.867 L -76.03099999999999 2.965999999999994 L -172.07999999999998 36.05499999999999 L -172.327 -3.7120000000000104 C -172.523 -37.110000000000014 -172.567 -58.66100000000001 -172.469 -64.39200000000001 C -171.54 -118.33300000000001 -126.90199999999999 -161.457 -72.97099999999999 -160.529 C -56.19999999999999 -160.242 -40.41099999999999 -155.91 -26.04699999999999 -147.646 L -24.85099999999999 -146.963 L 26.15900000000001 -156.605 z" stroke-linecap="round" />
</g>
		<g transform="matrix(1.3361832982492883 0 0 -1.3361832982492883 -56.46512130620255 -12.074574692357544)"  >
<path style="stroke: none; stroke-width: 1; stroke-dasharray: none; stroke-linecap: butt; stroke-dashoffset: 0; stroke-linejoin: miter; stroke-miterlimit: 4; fill: rgb(242,144,32); fill-rule: nonzero; opacity: 1;"  paint-order="stroke"  transform=" translate(0.34447540483657235, -18.047864983469545)" d="M 0 0 C -10.896 -0.186 -19.936 8.533 -20.125 19.443 C -20.232 25.716 -17.372 31.576 -12.498000000000001 35.362 L 18.318 26.347 C 19.029 24.352 19.393 22.27 19.429 20.124 C 19.616 9.214 10.896 0.189 0 0 M 24.325 33.289 L -13.833 44.448 C -22.706 39.592 -28.66 30.108 -28.475 19.3 C -28.208 3.765 -15.393 -8.616 0.144 -8.348 C 15.681000000000001 -8.082 28.052999999999997 4.731999999999999 27.785999999999998 20.268 C 27.706 24.989 26.450999999999997 29.415 24.325 33.289" stroke-linecap="round" />
</g>
		<g transform="matrix(1.3361832982492883 0 0 -1.3361832982492883 48.98084657013578 -14.188817751095968)"  >
<path style="stroke: none; stroke-width: 1; stroke-dasharray: none; stroke-linecap: butt; stroke-dashoffset: 0; stroke-linejoin: miter; stroke-miterlimit: 4; fill: rgb(242,144,32); fill-rule: nonzero; opacity: 1;"  paint-order="stroke"  transform=" translate(0.3383799338880138, -18.26986515254712)" d="M 0 0 C -10.897 -0.188 -19.922 8.532 -20.11 19.442 C -20.146 21.593 -19.842 23.688000000000002 -19.209 25.7 L 11.287 35.77 C 16.273 32.152 19.329 26.395 19.435 20.122 C 19.623 9.212 10.901 0.186 0 0 M 12.295 44.896 L -25.443 32.431 C -27.447000000000003 28.485999999999997 -28.542 24.017999999999997 -28.462000000000003 19.298 C -28.192000000000004 3.7619999999999987 -15.386000000000003 -8.620000000000001 0.14299999999999713 -8.352 C 15.680999999999997 -8.082 28.054999999999996 4.728999999999999 27.784999999999997 20.266 C 27.600999999999996 31.073999999999998 21.321999999999996 40.346999999999994 12.294999999999996 44.896" stroke-linecap="round" />
</g>
		<g transform="matrix(1.3361832982492883 0 0 -1.3361832982492883 -57.46221413415253 -12.209125283200109)"  >
<path style="stroke: none; stroke-width: 1; stroke-dasharray: none; stroke-linecap: butt; stroke-dashoffset: 0; stroke-linejoin: miter; stroke-miterlimit: 4; fill: rgb(27,26,25); fill-rule: nonzero; opacity: 1;"  paint-order="stroke"  transform=" translate(8.037999990382966, 6.463737312092098)" d="M 0 0 C 0.039 -2.251 -1.75 -4.108 -3.996 -4.146 C -6.25 -4.185 -8.1 -2.392 -8.14 -0.14 C -8.169 1.544 -7.174 3.002 -5.73 3.6519999999999997 C -6.527 3.8349999999999995 -7.351000000000001 3.9519999999999995 -8.209 3.9379999999999997 C -13.963 3.8369999999999997 -18.538 -0.8930000000000007 -18.439 -6.644000000000001 C -18.341 -12.385000000000002 -13.605 -16.965 -7.851000000000001 -16.865000000000002 C -2.1130000000000004 -16.767000000000003 2.4619999999999997 -12.027000000000001 2.3629999999999995 -6.285000000000002 C 2.321 -3.849 1.417 -1.662 -0.016 0.083 C -0.016 0.055 -0.001 0.029 0 0" stroke-linecap="round" />
</g>
		<g transform="matrix(1.3361832982492883 0 0 -1.3361832982492883 50.057620426868596 -14.058711884450133)"  >
<path style="stroke: none; stroke-width: 1; stroke-dasharray: none; stroke-linecap: butt; stroke-dashoffset: 0; stroke-linejoin: miter; stroke-miterlimit: 4; fill: rgb(27,26,25); fill-rule: nonzero; opacity: 1;"  paint-order="stroke"  transform=" translate(8.036422041379003, 6.465206118906664)" d="M 0 0 C 0.037 -2.251 -1.756 -4.108 -4.012 -4.146 C -6.26 -4.187 -8.122 -2.392 -8.161999999999999 -0.13999999999999968 C -8.190999999999999 1.5420000000000003 -7.1899999999999995 3.0080000000000005 -5.745999999999999 3.652 C -6.542999999999998 3.833 -7.371999999999998 3.95 -8.229999999999999 3.936 C -13.962999999999997 3.8369999999999997 -18.531 -0.8950000000000005 -18.433999999999997 -6.644 C -18.334999999999997 -12.387 -13.605999999999998 -16.964 -7.873999999999997 -16.866 C -2.112999999999997 -16.768 2.4630000000000027 -12.029 2.3610000000000024 -6.285 C 2.321 -3.85 1.404 -1.657 -0.018 0.087 C -0.018 0.062 -0.003 0.033 0 0" stroke-linecap="round" />
</g>
		<g transform="matrix(1.3361832982492883 0 0 -1.3361832982492883 -2.9689177115441794 32.365794657786296)"  >
<path style="stroke: none; stroke-width: 1; stroke-dasharray: none; stroke-linecap: butt; stroke-dashoffset: 0; stroke-linejoin: miter; stroke-miterlimit: 4; fill: rgb(242,144,32); fill-rule: nonzero; opacity: 1;"  paint-order="stroke"  transform=" translate(3.9303998356382976, 24.228421393407704)" d="M 0 0 C -2.43 3.297 -6.312 3.234 -8.628 -0.149 C -8.628 -0.149 -11.762 -15.113 -15.344000000000001 -16.659000000000002 C -18.929000000000002 -18.201000000000004 -20.309 -22.435000000000002 -18.41 -26.065000000000005 L -6.824 -48.19800000000001 C -4.925 -51.82900000000001 -1.9210000000000003 -51.77700000000001 -0.14700000000000024 -48.08500000000001 L 10.661999999999999 -25.567000000000007 C 12.434 -21.872000000000007 10.914 -17.68800000000001 7.279999999999999 -16.270000000000007 C 3.65 -14.847 0 0 0 0" stroke-linecap="round" />
</g>
</g>
</g>
</svg>